<svg width="32" height="27" viewBox="0 0 32 27" fill="none" xmlns="http://www.w3.org/2000/svg">
<g opacity="0.7">
<path fill-rule="evenodd" clip-rule="evenodd" d="M16 26.9998C22.2183 26.9998 27.2592 24.9359 27.2592 22.39C27.2592 22.3899 27.2592 22.3897 27.2592 22.3895V18.4383H21.8006C20.1065 18.0206 18.1218 17.7803 16 17.7803C13.8782 17.7803 11.8935 18.0206 10.1993 18.4383H4.74072V22.3895C4.74072 22.3897 4.74072 22.3899 4.74072 22.39C4.74072 24.9359 9.78167 26.9998 16 26.9998Z" fill="#006CB7"/>
<path fill-rule="evenodd" clip-rule="evenodd" d="M16 23.7074C24.8366 23.7074 32 19.9925 32 15.4099C32 15.4098 32 15.4098 32 15.4098V8.2976H24.2457C21.8376 7.54515 19.0163 7.1123 16 7.1123C12.9837 7.1123 10.1624 7.54515 7.7543 8.2976H0V15.4098C0 15.4098 0 15.4098 0 15.4099C0 19.9925 7.16344 23.7074 16 23.7074Z" fill="#2CAFE5"/>
<ellipse cx="16" cy="8.29756" rx="16" ry="8.29756" fill="#BBDCF5"/>
<path fill-rule="evenodd" clip-rule="evenodd" d="M16.0002 13.6971C20.9094 13.6971 24.8891 11.6332 24.8891 9.08729C24.8891 9.08713 24.8891 9.08696 24.8891 9.08679V5.13557H20.5797C19.2422 4.71783 17.6753 4.47754 16.0002 4.47754C14.3251 4.47754 12.7582 4.71783 11.4208 5.13557H7.11133V9.08679C7.11133 9.08696 7.11133 9.08713 7.11133 9.08729C7.11133 11.6332 11.091 13.6971 16.0002 13.6971Z" fill="#2CAFE5"/>
<ellipse cx="16.0002" cy="4.74146" rx="8.88889" ry="4.74146" fill="#BBDCF5"/>
</g>
<line x1="12.5" y1="6.5" x2="19.5" y2="6.5" stroke="#006CB7" stroke-linecap="round"/>
<path d="M13 5H19" stroke="#006CB7" stroke-linecap="round"/>
<line x1="13.5" y1="3.5" x2="18.5" y2="3.5" stroke="#006CB7" stroke-linecap="round"/>
</svg>
